<mxfile host="app.diagrams.net" modified="2023-11-26T16:13:00.773Z" agent="Mozilla/5.0 (Windows NT 10.0; Win64; x64) AppleWebKit/537.36 (KHTML, like Gecko) Chrome/119.0.0.0 Safari/537.36 Edg/119.0.0.0" etag="JFQmUcu6nm0bTbr2u6cp" version="22.1.4" type="github" pages="2">
  <diagram name="Page-1" id="ig_pTBNP3sqvtmgFaAP9">
    <mxGraphModel dx="2884" dy="778" grid="0" gridSize="10" guides="1" tooltips="1" connect="1" arrows="1" fold="1" page="0" pageScale="1" pageWidth="850" pageHeight="1100" math="0" shadow="0">
      <root>
        <mxCell id="0" />
        <mxCell id="1" parent="0" />
        <mxCell id="yfKtG8TXpY4wRmG183JI-12" value="" style="edgeStyle=none;curved=1;rounded=0;orthogonalLoop=1;jettySize=auto;html=1;fontSize=12;startSize=8;endSize=8;" edge="1" parent="1" source="yfKtG8TXpY4wRmG183JI-10" target="yfKtG8TXpY4wRmG183JI-11">
          <mxGeometry relative="1" as="geometry" />
        </mxCell>
        <mxCell id="yfKtG8TXpY4wRmG183JI-10" value="START" style="html=1;dashed=0;whiteSpace=wrap;shape=mxgraph.dfd.start;fontSize=16;" vertex="1" parent="1">
          <mxGeometry x="-580.34" y="509" width="114.67" height="43" as="geometry" />
        </mxCell>
        <mxCell id="yfKtG8TXpY4wRmG183JI-14" value="" style="edgeStyle=none;curved=1;rounded=0;orthogonalLoop=1;jettySize=auto;html=1;fontSize=12;startSize=8;endSize=8;" edge="1" parent="1" source="yfKtG8TXpY4wRmG183JI-11" target="yfKtG8TXpY4wRmG183JI-13">
          <mxGeometry relative="1" as="geometry" />
        </mxCell>
        <mxCell id="yfKtG8TXpY4wRmG183JI-11" value="Connecting to Wifi" style="whiteSpace=wrap;html=1;fontSize=16;dashed=0;" vertex="1" parent="1">
          <mxGeometry x="-583" y="611" width="120" height="60" as="geometry" />
        </mxCell>
        <mxCell id="yfKtG8TXpY4wRmG183JI-18" style="edgeStyle=none;orthogonalLoop=1;jettySize=auto;html=1;entryX=1;entryY=0.5;entryDx=0;entryDy=0;fontSize=12;startSize=8;endSize=8;exitX=1;exitY=0.5;exitDx=0;exitDy=0;curved=1;" edge="1" parent="1" source="yfKtG8TXpY4wRmG183JI-13" target="yfKtG8TXpY4wRmG183JI-11">
          <mxGeometry relative="1" as="geometry">
            <Array as="points">
              <mxPoint x="-328" y="713" />
            </Array>
          </mxGeometry>
        </mxCell>
        <mxCell id="yfKtG8TXpY4wRmG183JI-19" value="NO" style="edgeLabel;html=1;align=center;verticalAlign=middle;resizable=0;points=[];fontSize=16;" vertex="1" connectable="0" parent="yfKtG8TXpY4wRmG183JI-18">
          <mxGeometry x="-0.3458" y="31" relative="1" as="geometry">
            <mxPoint as="offset" />
          </mxGeometry>
        </mxCell>
        <mxCell id="yfKtG8TXpY4wRmG183JI-25" value="" style="edgeStyle=none;curved=1;rounded=0;orthogonalLoop=1;jettySize=auto;html=1;fontSize=12;startSize=8;endSize=8;" edge="1" parent="1" source="yfKtG8TXpY4wRmG183JI-13" target="yfKtG8TXpY4wRmG183JI-24">
          <mxGeometry relative="1" as="geometry" />
        </mxCell>
        <mxCell id="yfKtG8TXpY4wRmG183JI-26" value="YES" style="edgeLabel;html=1;align=center;verticalAlign=middle;resizable=0;points=[];fontSize=16;" vertex="1" connectable="0" parent="yfKtG8TXpY4wRmG183JI-25">
          <mxGeometry x="-0.3784" y="5" relative="1" as="geometry">
            <mxPoint x="-5" y="8" as="offset" />
          </mxGeometry>
        </mxCell>
        <mxCell id="yfKtG8TXpY4wRmG183JI-13" value="Wifi Connected?" style="rhombus;whiteSpace=wrap;html=1;fontSize=16;dashed=0;" vertex="1" parent="1">
          <mxGeometry x="-576.5" y="738" width="107" height="107" as="geometry" />
        </mxCell>
        <mxCell id="yfKtG8TXpY4wRmG183JI-29" value="" style="edgeStyle=none;curved=1;rounded=0;orthogonalLoop=1;jettySize=auto;html=1;fontSize=12;startSize=8;endSize=8;" edge="1" parent="1" source="yfKtG8TXpY4wRmG183JI-24" target="yfKtG8TXpY4wRmG183JI-28">
          <mxGeometry relative="1" as="geometry" />
        </mxCell>
        <mxCell id="yfKtG8TXpY4wRmG183JI-24" value="Get Sensor&lt;br&gt;Value" style="shape=parallelogram;perimeter=parallelogramPerimeter;whiteSpace=wrap;html=1;fixedSize=1;fontSize=16;dashed=0;" vertex="1" parent="1">
          <mxGeometry x="-583" y="939" width="120" height="60" as="geometry" />
        </mxCell>
        <mxCell id="yfKtG8TXpY4wRmG183JI-32" value="" style="edgeStyle=none;curved=1;rounded=0;orthogonalLoop=1;jettySize=auto;html=1;fontSize=12;startSize=8;endSize=8;" edge="1" parent="1" source="yfKtG8TXpY4wRmG183JI-28" target="yfKtG8TXpY4wRmG183JI-31">
          <mxGeometry relative="1" as="geometry" />
        </mxCell>
        <mxCell id="yfKtG8TXpY4wRmG183JI-28" value="Fuzzy Process" style="whiteSpace=wrap;html=1;fontSize=16;dashed=0;" vertex="1" parent="1">
          <mxGeometry x="-583.01" y="1072" width="120" height="60" as="geometry" />
        </mxCell>
        <mxCell id="yfKtG8TXpY4wRmG183JI-34" value="" style="edgeStyle=none;curved=1;rounded=0;orthogonalLoop=1;jettySize=auto;html=1;fontSize=12;startSize=8;endSize=8;" edge="1" parent="1" source="yfKtG8TXpY4wRmG183JI-31" target="yfKtG8TXpY4wRmG183JI-33">
          <mxGeometry relative="1" as="geometry" />
        </mxCell>
        <mxCell id="yfKtG8TXpY4wRmG183JI-31" value="Send To Firebase" style="whiteSpace=wrap;html=1;fontSize=16;dashed=0;" vertex="1" parent="1">
          <mxGeometry x="-586.1800000000001" y="1195" width="126.34" height="60" as="geometry" />
        </mxCell>
        <mxCell id="yfKtG8TXpY4wRmG183JI-35" style="edgeStyle=none;curved=1;rounded=0;orthogonalLoop=1;jettySize=auto;html=1;entryX=0;entryY=0.5;entryDx=0;entryDy=0;fontSize=12;startSize=8;endSize=8;exitX=0;exitY=0.5;exitDx=0;exitDy=0;" edge="1" parent="1" source="yfKtG8TXpY4wRmG183JI-33" target="yfKtG8TXpY4wRmG183JI-11">
          <mxGeometry relative="1" as="geometry">
            <Array as="points">
              <mxPoint x="-848" y="1012" />
            </Array>
          </mxGeometry>
        </mxCell>
        <mxCell id="yfKtG8TXpY4wRmG183JI-36" value="NO" style="edgeLabel;html=1;align=center;verticalAlign=middle;resizable=0;points=[];fontSize=16;" vertex="1" connectable="0" parent="yfKtG8TXpY4wRmG183JI-35">
          <mxGeometry x="0.2136" y="-99" relative="1" as="geometry">
            <mxPoint x="1" y="-1" as="offset" />
          </mxGeometry>
        </mxCell>
        <mxCell id="yfKtG8TXpY4wRmG183JI-33" value="Send Success" style="rhombus;whiteSpace=wrap;html=1;fontSize=16;dashed=0;" vertex="1" parent="1">
          <mxGeometry x="-576.5" y="1322" width="102" height="102" as="geometry" />
        </mxCell>
        <mxCell id="yfKtG8TXpY4wRmG183JI-42" value="" style="edgeStyle=none;curved=1;rounded=0;orthogonalLoop=1;jettySize=auto;html=1;fontSize=12;startSize=8;endSize=8;" edge="1" parent="1" source="yfKtG8TXpY4wRmG183JI-37" target="yfKtG8TXpY4wRmG183JI-41">
          <mxGeometry relative="1" as="geometry" />
        </mxCell>
        <mxCell id="yfKtG8TXpY4wRmG183JI-37" value="Final Data Value" style="shape=cylinder3;whiteSpace=wrap;html=1;boundedLbl=1;backgroundOutline=1;size=15;fontSize=16;" vertex="1" parent="1">
          <mxGeometry x="-385" y="1169" width="73.46" height="91.5" as="geometry" />
        </mxCell>
        <mxCell id="yfKtG8TXpY4wRmG183JI-38" style="edgeStyle=none;curved=1;rounded=0;orthogonalLoop=1;jettySize=auto;html=1;entryX=-0.001;entryY=0.618;entryDx=0;entryDy=0;entryPerimeter=0;fontSize=12;startSize=8;endSize=8;dashed=1;" edge="1" parent="1" source="yfKtG8TXpY4wRmG183JI-31" target="yfKtG8TXpY4wRmG183JI-37">
          <mxGeometry relative="1" as="geometry" />
        </mxCell>
        <mxCell id="yfKtG8TXpY4wRmG183JI-39" style="edgeStyle=none;curved=1;rounded=0;orthogonalLoop=1;jettySize=auto;html=1;entryX=0.5;entryY=1;entryDx=0;entryDy=0;entryPerimeter=0;fontSize=12;startSize=8;endSize=8;exitX=1;exitY=0.5;exitDx=0;exitDy=0;" edge="1" parent="1" source="yfKtG8TXpY4wRmG183JI-33" target="yfKtG8TXpY4wRmG183JI-37">
          <mxGeometry relative="1" as="geometry">
            <Array as="points">
              <mxPoint x="-389" y="1381" />
            </Array>
          </mxGeometry>
        </mxCell>
        <mxCell id="yfKtG8TXpY4wRmG183JI-40" value="YES" style="edgeLabel;html=1;align=center;verticalAlign=middle;resizable=0;points=[];fontSize=16;" vertex="1" connectable="0" parent="yfKtG8TXpY4wRmG183JI-39">
          <mxGeometry x="0.2834" y="8" relative="1" as="geometry">
            <mxPoint as="offset" />
          </mxGeometry>
        </mxCell>
        <mxCell id="yfKtG8TXpY4wRmG183JI-41" value="A" style="ellipse;whiteSpace=wrap;html=1;fontSize=33;" vertex="1" parent="1">
          <mxGeometry x="-246.00000000000003" y="1175" width="80" height="80" as="geometry" />
        </mxCell>
        <mxCell id="yfKtG8TXpY4wRmG183JI-45" value="" style="edgeStyle=none;curved=1;rounded=0;orthogonalLoop=1;jettySize=auto;html=1;fontSize=12;startSize=8;endSize=8;" edge="1" parent="1" source="yfKtG8TXpY4wRmG183JI-43" target="yfKtG8TXpY4wRmG183JI-44">
          <mxGeometry relative="1" as="geometry" />
        </mxCell>
        <mxCell id="yfKtG8TXpY4wRmG183JI-43" value="A" style="ellipse;whiteSpace=wrap;html=1;fontSize=33;" vertex="1" parent="1">
          <mxGeometry x="-100.00000000000003" y="519" width="80" height="80" as="geometry" />
        </mxCell>
        <mxCell id="yfKtG8TXpY4wRmG183JI-47" value="" style="edgeStyle=none;curved=1;rounded=0;orthogonalLoop=1;jettySize=auto;html=1;fontSize=12;startSize=8;endSize=8;" edge="1" parent="1" source="yfKtG8TXpY4wRmG183JI-44" target="yfKtG8TXpY4wRmG183JI-46">
          <mxGeometry relative="1" as="geometry" />
        </mxCell>
        <mxCell id="yfKtG8TXpY4wRmG183JI-44" value="Kodular Process" style="whiteSpace=wrap;html=1;fontSize=16;" vertex="1" parent="1">
          <mxGeometry x="-127" y="656" width="134" height="67" as="geometry" />
        </mxCell>
        <mxCell id="yfKtG8TXpY4wRmG183JI-51" value="" style="edgeStyle=none;curved=1;rounded=0;orthogonalLoop=1;jettySize=auto;html=1;fontSize=12;startSize=8;endSize=8;dashed=1;" edge="1" parent="1" source="yfKtG8TXpY4wRmG183JI-46" target="yfKtG8TXpY4wRmG183JI-48">
          <mxGeometry relative="1" as="geometry" />
        </mxCell>
        <mxCell id="yfKtG8TXpY4wRmG183JI-53" value="" style="edgeStyle=none;curved=1;rounded=0;orthogonalLoop=1;jettySize=auto;html=1;fontSize=12;startSize=8;endSize=8;" edge="1" parent="1" source="yfKtG8TXpY4wRmG183JI-46" target="yfKtG8TXpY4wRmG183JI-52">
          <mxGeometry relative="1" as="geometry" />
        </mxCell>
        <mxCell id="yfKtG8TXpY4wRmG183JI-46" value="Get Final Data Value" style="whiteSpace=wrap;html=1;fontSize=16;" vertex="1" parent="1">
          <mxGeometry x="-120" y="772" width="120" height="60" as="geometry" />
        </mxCell>
        <mxCell id="yfKtG8TXpY4wRmG183JI-48" value="Final Data Value" style="shape=cylinder3;whiteSpace=wrap;html=1;boundedLbl=1;backgroundOutline=1;size=15;fontSize=16;" vertex="1" parent="1">
          <mxGeometry x="56" y="756.25" width="73.46" height="91.5" as="geometry" />
        </mxCell>
        <mxCell id="yfKtG8TXpY4wRmG183JI-54" style="edgeStyle=none;curved=1;rounded=0;orthogonalLoop=1;jettySize=auto;html=1;entryX=0;entryY=0.5;entryDx=0;entryDy=0;fontSize=12;startSize=8;endSize=8;" edge="1" parent="1" source="yfKtG8TXpY4wRmG183JI-52" target="yfKtG8TXpY4wRmG183JI-44">
          <mxGeometry relative="1" as="geometry">
            <Array as="points">
              <mxPoint x="-258" y="835" />
            </Array>
          </mxGeometry>
        </mxCell>
        <mxCell id="yfKtG8TXpY4wRmG183JI-55" value="NO" style="edgeLabel;html=1;align=center;verticalAlign=middle;resizable=0;points=[];fontSize=16;" vertex="1" connectable="0" parent="yfKtG8TXpY4wRmG183JI-54">
          <mxGeometry x="0.31" y="-41" relative="1" as="geometry">
            <mxPoint as="offset" />
          </mxGeometry>
        </mxCell>
        <mxCell id="yfKtG8TXpY4wRmG183JI-52" value="Sucess Get Final Data Value?" style="rhombus;whiteSpace=wrap;html=1;fontSize=16;" vertex="1" parent="1">
          <mxGeometry x="-121.5" y="881" width="123" height="123" as="geometry" />
        </mxCell>
        <mxCell id="yfKtG8TXpY4wRmG183JI-56" value="display data on the application" style="shape=display;whiteSpace=wrap;html=1;fontSize=16;" vertex="1" parent="1">
          <mxGeometry x="11" y="1032" width="134.47" height="71" as="geometry" />
        </mxCell>
        <mxCell id="yfKtG8TXpY4wRmG183JI-57" style="edgeStyle=none;curved=1;rounded=0;orthogonalLoop=1;jettySize=auto;html=1;exitX=0.5;exitY=1;exitDx=0;exitDy=0;entryX=0;entryY=0.5;entryDx=0;entryDy=0;entryPerimeter=0;fontSize=12;startSize=8;endSize=8;" edge="1" parent="1" source="yfKtG8TXpY4wRmG183JI-52" target="yfKtG8TXpY4wRmG183JI-56">
          <mxGeometry relative="1" as="geometry">
            <Array as="points">
              <mxPoint x="-75" y="1071" />
            </Array>
          </mxGeometry>
        </mxCell>
        <mxCell id="yfKtG8TXpY4wRmG183JI-58" value="YES" style="edgeLabel;html=1;align=center;verticalAlign=middle;resizable=0;points=[];fontSize=16;" vertex="1" connectable="0" parent="yfKtG8TXpY4wRmG183JI-57">
          <mxGeometry x="0.3338" y="8" relative="1" as="geometry">
            <mxPoint as="offset" />
          </mxGeometry>
        </mxCell>
      </root>
    </mxGraphModel>
  </diagram>
  <diagram id="fe3Y3jb8U84x1lycvy90" name="Page-2">
    <mxGraphModel dx="1042" dy="589" grid="0" gridSize="10" guides="1" tooltips="1" connect="1" arrows="1" fold="1" page="0" pageScale="1" pageWidth="850" pageHeight="1100" math="0" shadow="0">
      <root>
        <mxCell id="0" />
        <mxCell id="1" parent="0" />
      </root>
    </mxGraphModel>
  </diagram>
</mxfile>
